<svg width="26" height="16" viewBox="0 0 2600 1600" fill="currentColor" xmlns="http://www.w3.org/2000/svg">
<path fill-rule="evenodd" clip-rule="evenodd" d="M34.7093 184.688C4.72818 224.298 -4.37015 271.509 1.85024 320.25C8.0515 356.515 27.7137 385.986 53.6692 411.091L58.2889 415.565C73.9451 430.636 89.8315 445.389 106.226 459.651C113.305 465.896 120.165 472.368 127.031 478.845L127.798 479.569C140.74 491.743 140.74 491.743 154.028 503.536C164.602 512.632 174.679 522.266 184.847 531.809C191.967 538.479 199.092 545.106 206.489 551.47C216.94 560.467 226.915 569.975 236.972 579.407C246.894 588.703 256.916 597.871 267.048 606.938C273.415 612.66 279.731 618.436 286.035 624.227L289.501 627.411C294.176 631.705 298.848 636.002 303.52 640.299C315.18 651.018 326.849 661.726 338.638 672.304C348.8 681.429 358.831 690.689 368.85 699.97C376.264 706.831 383.721 713.637 391.241 720.38C401.359 729.454 411.341 738.669 421.311 747.905C428.725 754.765 436.182 761.571 443.701 768.314C453.82 777.388 463.802 786.603 473.772 795.839C481.185 802.699 488.642 809.505 496.162 816.249C506.28 825.322 516.262 834.537 526.232 843.773C533.646 850.634 541.102 857.439 548.622 864.183C558.741 873.257 568.723 882.471 578.693 891.707C586.106 898.568 593.563 905.373 601.083 912.117C612.364 922.237 623.488 932.522 634.61 942.816C649.912 956.977 665.255 971.091 680.772 985.017C690.934 994.142 700.965 1003.4 710.984 1012.68C718.397 1019.54 725.854 1026.35 733.375 1033.09C743.493 1042.17 753.475 1051.38 763.445 1060.62C770.858 1067.48 778.315 1074.28 785.835 1081.03C795.953 1090.1 805.935 1099.32 815.905 1108.55C823.319 1115.41 830.776 1122.22 838.296 1128.96C848.414 1138.04 858.396 1147.25 868.366 1156.49C875.779 1163.35 883.236 1170.15 890.756 1176.9C900.875 1185.97 910.856 1195.18 920.826 1204.42C928.24 1211.28 935.697 1218.09 943.217 1224.83C953.335 1233.9 963.317 1243.12 973.287 1252.35C980.7 1259.21 988.157 1266.02 995.677 1272.76C1005.8 1281.84 1015.78 1291.05 1025.75 1300.29C1033.16 1307.15 1040.62 1313.95 1048.14 1320.7C1059.42 1330.82 1070.54 1341.1 1081.66 1351.4C1098.8 1367.25 1116 1383.02 1133.39 1398.58C1137.78 1402.57 1142.12 1406.58 1146.42 1410.65C1195.6 1457.08 1244.67 1480.81 1312.73 1479.98C1340.28 1479.1 1365.96 1471.82 1390.27 1458.79L1396.84 1455.48C1415.09 1445.67 1429.13 1433.01 1443.87 1418.71C1448.71 1414.07 1453.69 1409.61 1458.7 1405.15C1467.52 1397.24 1476.24 1389.24 1484.93 1381.19C1493.62 1373.14 1502.34 1365.13 1511.16 1357.22C1522.44 1347.1 1533.56 1336.81 1544.69 1326.52C1559.99 1312.36 1575.33 1298.24 1590.85 1284.32C1601.01 1275.19 1611.04 1265.93 1621.06 1256.65C1630.28 1248.12 1639.59 1239.71 1648.94 1231.32C1655.9 1225.02 1662.79 1218.66 1669.68 1212.28C1680.17 1202.55 1690.75 1192.94 1701.4 1183.39C1708.36 1177.09 1715.25 1170.72 1722.14 1164.34C1732.63 1154.62 1743.21 1145 1753.86 1135.45C1760.82 1129.16 1767.71 1122.79 1774.6 1116.41C1785.09 1106.69 1795.67 1097.07 1806.32 1087.52C1813.28 1081.22 1820.18 1074.85 1827.06 1068.47C1837.55 1058.75 1848.13 1049.13 1858.78 1039.58C1865.74 1033.29 1872.64 1026.92 1879.52 1020.54C1890.01 1010.82 1900.59 1001.2 1911.24 991.65C1918.2 985.354 1925.1 978.985 1931.98 972.605C1940.67 964.554 1949.39 956.547 1958.21 948.638C1969.49 938.518 1980.62 928.233 1991.74 917.939C2007.04 903.778 2022.38 889.663 2037.9 875.738C2048.06 866.613 2058.09 857.353 2068.11 848.071C2077.33 839.542 2086.64 831.124 2095.99 822.74C2102.96 816.443 2109.85 810.074 2116.73 803.694C2127.23 793.973 2137.8 784.355 2148.45 774.806C2155.42 768.509 2162.31 762.14 2169.2 755.76C2179.69 746.039 2190.26 736.421 2200.91 726.871C2207.88 720.575 2214.77 714.206 2221.66 707.826C2232.15 698.105 2242.72 688.487 2253.37 678.937C2260.34 672.641 2267.23 666.272 2274.12 659.892C2284.61 650.171 2295.19 640.553 2305.83 631.003C2312.8 624.707 2319.69 618.338 2326.58 611.958C2335.27 603.907 2343.99 595.9 2352.81 587.991C2364.09 577.871 2375.21 567.586 2386.33 557.292C2401.64 543.131 2416.98 529.016 2432.5 515.091C2442.66 505.966 2452.69 496.706 2462.71 487.424C2471.93 478.895 2481.24 470.477 2490.59 462.093C2498.72 454.738 2506.76 447.284 2514.8 439.829L2515.14 439.515C2522.83 432.391 2530.59 425.35 2538.41 418.367C2541.93 415.186 2545.45 412 2548.96 408.809L2553.36 404.877C2580.6 379.309 2597.99 340.735 2599.87 303.605C2601.38 253.998 2589.66 211.185 2555.81 173.703L2551.48 168.808C2525.09 140.625 2487.14 123.267 2448.78 120.577C2438.6 120.246 2428.43 120.29 2418.25 120.335L2418.03 120.336C2414.05 120.328 2410.08 120.317 2406.11 120.304C2395.22 120.275 2384.33 120.289 2373.44 120.31C2362.94 120.324 2352.44 120.306 2341.94 120.289L2337.87 120.282C2317.1 120.254 2296.33 120.251 2275.55 120.265C2244.66 120.286 2213.77 120.267 2182.88 120.242C2126.11 120.195 2069.33 120.192 2012.56 120.204L1988.44 120.209L1983.6 120.21C1948.18 120.217 1912.77 120.21 1877.35 120.2L1862.8 120.196L1823.81 120.186C1733.08 120.161 1642.35 120.151 1551.63 120.169L1546.45 120.17L1489.25 120.182L1484.04 120.183L1463.15 120.187C1353.06 120.211 1242.96 120.193 1132.87 120.139C1105.13 120.126 1077.38 120.112 1049.64 120.1L1044.46 120.097C991.806 120.073 939.147 120.06 886.489 120.059L881.478 120.059C845.178 120.059 808.877 120.061 772.577 120.066C759.588 120.068 746.598 120.069 733.609 120.071L723.916 120.072C672.457 120.078 620.999 120.059 569.541 120.027C516.266 119.994 462.991 119.995 409.716 120.034C379.009 120.056 348.301 120.053 317.594 120.013C297.079 119.989 276.565 119.999 256.051 120.035C244.364 120.055 232.678 120.06 220.992 120.025C210.345 119.994 199.699 120.005 189.053 120.049C185.24 120.057 181.427 120.051 177.614 120.026C118.565 119.679 73.1562 139.801 34.7093 184.688ZM1793.92 235.302L1787.74 235.352C1774.41 235.425 1764.59 240.137 1754.94 249.38C1747.96 260.653 1744.78 271.809 1744.61 284.991L1744.68 290.405C1744.65 296.634 1744.63 302.86 1744.66 309.089C1744.69 313.64 1744.7 318.191 1744.7 322.742C1744.66 335.163 1744.66 347.584 1744.71 360.005C1744.76 373.209 1744.77 386.412 1744.77 399.615C1744.76 421.732 1744.79 443.848 1744.85 465.964C1744.92 491.709 1744.97 517.454 1744.97 543.2C1744.96 570.835 1744.98 598.47 1745.02 626.105C1745.04 634.024 1745.04 641.942 1745.05 649.861C1745.05 662.531 1745.06 675.201 1745.1 687.871C1745.12 692.538 1745.13 697.206 1745.15 701.874C1745.14 708.375 1745.14 714.876 1745.17 721.377L1745.2 727.271C1745.14 741.906 1746.23 753.884 1754.09 766.57C1766.11 778.594 1778.72 782.152 1795.47 782.28L1802.15 782.191C1809.68 782.207 1817.2 782.209 1824.72 782.154C1830.09 782.111 1835.46 782.085 1840.83 782.074C1852.04 782.066 1863.24 782.046 1874.45 781.987C1889.02 781.896 1903.58 781.818 1918.15 781.792C1932.26 781.771 1946.37 781.738 1960.48 781.691L1968.56 781.663C1976.36 781.64 1984.17 781.613 1991.97 781.568L1999.11 781.523L2005.86 781.504L2012.04 781.455C2019.85 781.412 2025.69 780.55 2032.7 776.76L2036.71 774.13L2040.69 771.625C2051.02 761.173 2054.99 748.677 2055.16 734.241L2055.08 728.739C2055.11 722.434 2055.13 716.131 2055.09 709.826C2055.06 705.215 2055.04 700.604 2055.05 695.993C2055.07 683.419 2055.06 670.845 2055.01 658.27C2054.95 644.907 2054.93 631.545 2054.92 618.182C2054.92 595.812 2054.88 573.442 2054.81 551.072C2054.72 522.123 2054.66 493.175 2054.64 464.226C2054.62 439.154 2054.59 414.082 2054.54 389.01C2054.53 380.995 2054.51 372.98 2054.5 364.966C2054.48 352.135 2054.46 339.305 2054.42 326.475C2054.4 321.759 2054.39 317.044 2054.37 312.328C2054.37 305.737 2054.36 299.147 2054.33 292.556L2054.31 286.619C2054.31 286.119 2054.31 285.623 2054.31 285.128C2054.31 284.748 2054.31 284.369 2054.31 283.991C2054.36 274.419 2054.39 265.792 2049.61 256.949L2046.98 252.946L2044.47 248.961C2033.02 237.66 2020.01 234.647 2004.32 234.526L1997.63 234.615C1990.1 234.599 1982.58 234.597 1975.06 234.653C1969.69 234.695 1964.32 234.721 1958.95 234.733C1947.75 234.741 1936.54 234.76 1925.33 234.82C1910.77 234.91 1896.2 234.989 1881.64 235.014C1867.52 235.035 1853.41 235.068 1839.3 235.116L1831.22 235.144C1823.42 235.167 1815.62 235.193 1807.81 235.238L1800.68 235.284L1793.92 235.302ZM593.239 235.302L587.063 235.352C579.253 235.395 573.411 236.257 566.399 240.047L562.395 242.677L558.409 245.182C548.088 255.634 544.109 268.129 543.943 282.565L544.019 288.068C543.989 294.373 543.973 300.675 544.013 306.98C544.045 311.591 544.059 316.202 544.058 320.813C544.034 333.388 544.044 345.962 544.097 358.536C544.155 371.899 544.175 385.262 544.18 398.625C544.188 420.995 544.222 443.365 544.291 465.735C544.383 494.683 544.443 523.631 544.465 552.58C544.484 577.652 544.517 602.724 544.56 627.797C544.575 635.811 544.589 643.826 544.6 651.841C544.619 664.671 544.643 677.502 544.683 690.332C544.699 695.047 544.714 699.763 544.728 704.478C544.737 711.069 544.746 717.66 544.771 724.25L544.796 730.188C544.794 740.825 544.277 750.212 549.493 759.858L552.123 763.86L554.629 767.845C566.079 779.147 579.096 782.16 594.786 782.28L601.475 782.191C608.999 782.207 616.52 782.209 624.044 782.154C629.413 782.111 634.781 782.085 640.15 782.074C651.357 782.066 662.564 782.046 673.771 781.987C688.337 781.896 702.902 781.818 717.468 781.792C731.579 781.771 745.69 781.738 759.802 781.691L767.879 781.663C775.684 781.64 783.488 781.613 791.293 781.568L798.426 781.523L805.185 781.504L811.361 781.455C824.693 781.381 834.516 776.67 844.161 767.426C851.145 756.153 854.328 744.998 854.491 731.816L854.42 726.401C854.455 720.172 854.477 713.946 854.441 707.717C854.414 703.166 854.403 698.615 854.408 694.064C854.441 681.643 854.441 669.222 854.396 656.801C854.348 643.598 854.335 630.395 854.336 617.191C854.339 595.075 854.315 572.959 854.255 550.842C854.183 525.097 854.135 499.352 854.138 473.607C854.141 445.972 854.123 418.337 854.08 390.702C854.068 382.783 854.058 374.864 854.055 366.945C854.052 354.275 854.042 341.606 854.001 328.936C853.984 324.268 853.968 319.6 853.955 314.932C853.958 308.431 853.962 301.93 853.933 295.429L853.902 289.536C853.959 274.9 852.872 262.922 845.017 250.236C832.99 238.212 820.384 234.655 803.638 234.526L796.949 234.615C789.425 234.599 781.903 234.597 774.38 234.653C769.011 234.695 763.643 234.721 758.274 234.733C747.067 234.741 735.86 234.76 724.653 234.82C710.087 234.91 695.522 234.989 680.956 235.014C666.845 235.035 652.734 235.068 638.622 235.116L630.545 235.144C622.74 235.167 614.936 235.193 607.131 235.238L599.998 235.284L593.239 235.302ZM1351.05 897.08C1345.84 878.959 1340.43 864.444 1325.8 851.865C1310.42 843.23 1294.12 842.304 1277.82 849.271C1260.73 859.078 1255.29 874.24 1250.1 892.315C1241.31 923.087 1228.06 950.595 1206.16 974.191C1180.17 998.853 1152.19 1009.43 1116.7 1010.01L1109.66 1010.05C1082.62 1010.2 1059.18 1005.67 1035.18 992.805C1004.44 973.884 989.052 945.364 979.837 911.486C976.089 896.093 971.47 886.044 958.633 875.917C944.482 868.625 930.252 867.679 914.736 871.201C901.255 876.105 894.593 886.1 887.959 898.221C879.261 925.225 890.445 955.522 902.44 980.093L905.793 986.511C915.119 1004.51 924.814 1020.99 938.972 1035.73L944.598 1041.28C987.535 1084.7 1041.01 1105.08 1101.93 1105.86L1110.8 1105.9C1121.63 1105.95 1132.39 1105.85 1143.19 1105.18C1206.15 1096.93 1255.4 1065.13 1294.56 1016.46L1298.41 1011.61C1300.73 1013.86 1303 1016.15 1305.26 1018.46C1327.46 1043.83 1349.74 1066.02 1380.21 1081.25L1387.43 1084.64C1429.08 1105 1469.61 1106.81 1515.31 1105.5C1561.84 1103.31 1616.61 1082.8 1648.5 1047.79L1652.22 1043.56C1659.38 1036.18 1666.26 1028.72 1672.77 1020.74C1696.41 988.716 1718.85 945.291 1713.85 904.354C1709.57 891.515 1701.31 880.346 1689.46 873.545C1676.41 867.828 1661.05 867.942 1647.66 872.404C1633.1 880.764 1626.13 889.98 1621.41 905.923C1617.85 918.608 1613.97 930.997 1608.85 943.151C1593.72 974.059 1570.31 992.932 1538.29 1004.99C1498.55 1016.26 1454 1012.38 1417.8 993.162C1381.92 972.365 1362.43 935.647 1351.05 897.08Z" />
</svg>
